<?xml version="1.0" encoding="UTF-8"?>
<!-- Generator: Adobe Illustrator 28.3.0, SVG Export Plug-In . SVG Version: 6.00 Build 0)  -->
<svg xmlns="http://www.w3.org/2000/svg" xmlns:xlink="http://www.w3.org/1999/xlink" version="1.1" id="Layer_1" x="0px" y="0px" viewBox="0 0 390.5 107.6" style="enable-background:new 0 0 390.5 107.6;" xml:space="preserve">
<style type="text/css">
	.st0{fill:#FCC233;}
	.st1{fill:#C18B00;}
	.st2{fill:#FFFFFF;}
</style>
<g>
	<circle class="st0" cx="53.8" cy="53.8" r="53.8"></circle>
	<polygon class="st1" points="53.8,3.6 54.7,44.5 63.6,4.6 56.5,44.9 73,7.5 58.2,45.6 81.7,12.1 59.7,46.6 89.3,18.3 61,47.9    95.5,25.9 62,49.4 100.1,34.6 62.7,51.1 103,44 63.1,52.9 104,53.8 63.1,54.7 103,63.6 62.7,56.5 100.1,73 62,58.2 95.5,81.7    61,59.7 89.3,89.3 59.7,61 81.7,95.5 58.2,62 73,100.1 56.5,62.7 63.6,103 54.7,63.1 53.8,104 52.9,63.1 44,103 51.1,62.7    34.6,100.1 49.4,62 25.9,95.5 47.9,61 18.3,89.3 46.6,59.7 12.1,81.7 45.6,58.2 7.5,73 44.9,56.5 4.6,63.6 44.5,54.7 3.6,53.8    44.5,52.9 4.6,44 44.9,51.1 7.5,34.6 45.6,49.4 12.1,25.9 46.6,47.9 18.3,18.3 47.9,46.6 25.9,12.1 49.4,45.6 34.6,7.5 51.1,44.9    44,4.6 52.9,44.5  "></polygon>
	<path class="st2" d="M90.4,19.8c0.8,2.7,1.3,5.2,1.7,8.1L81.9,38l10.5-7.3c0.1,1.6,0.2,3.2,0.2,4.9c0,1.4-0.1,2.7-0.1,4.1   l-15.7,9.2l15.4-6.3c-0.4,3.3-1.1,6.4-2,9.5l-11.4,3.2l10.7-1.1c-1.2,3.4-2.7,6.8-4.4,9.9l-11.7-1l10.8,2.5   c-1.9,3.1-4.1,6.1-6.6,8.8l-9.2-3l8,4.3c-2.6,2.7-5.4,5.1-8.4,7.2l-4.9-6l3.9,6.7c-2.4,1.6-5,3.1-7.7,4.4l6.3,15.4   c-3.7-1.2-7.7-1.9-11.8-1.9s-8.1,0.7-11.8,1.9L48.3,88c-2.7-1.3-5.2-2.7-7.7-4.4l3.9-6.7l-4.9,6c-3-2.1-5.8-4.6-8.4-7.2l8-4.3   l-9.2,3c-2.5-2.7-4.7-5.7-6.6-8.8L34.2,63l-11.7,1c-1.8-3.1-3.3-6.4-4.4-9.9l10.7,1.1L17.4,52c-0.9-3.1-1.6-6.2-2-9.5l15.4,6.3   l-15.7-9.2C15,38.3,15,36.9,15,35.5c0-1.6,0.1-3.3,0.2-4.9L25.7,38L15.5,27.9c0.4-2.9,1-5.7,1.8-8.4l31,32.6l1.5,8.3h0.9   c0,0,1-4,1-7.5c0-6.9-3.3-5.9-3.3-5c0.2-3.2,2.6-5,5.5-5c0.9,0,2.3,0.3,3.5,1.6c1.3,1.3,2.9,2.3,4.6,2.9c-1.1,0.8-2.5,1.1-3.8,0.9   c0,0-1.6,1.4-1.6,4.6c0,4.3,1,7.5,1,7.5h0.9l1.5-8.3L90.4,19.8z"></path>
</g>
<g>
	<path class="st2" d="M154,25c-3.6-2.3-7.4-2.7-11-2.7c-0.9,0-2.7,0.1-5.3,0.3c-1.9,0.2-4,0.2-6.1,0.2c-0.7,0-1.1,0.1-1.3,0.5l0,0   l0,0c0,0.3,0.4,0.4,0.8,0.5c0.1,0,0.2,0,0.3,0.1c1.5,0.3,1.9,0.6,2,2.4c0.2,1.5,0.2,4.5,0.2,13.2c0,7.3-0.1,9.4-0.2,10.5   c-0.2,1.9-0.6,2.1-2.3,2.5c-0.7,0.1-1,0.2-1,0.5s0.4,0.5,1.1,0.5c0.1,0,0.5,0,0.9,0c0.7,0,1.7-0.1,2.6-0.1c1.5,0,3,0.1,4.4,0.2h0.5   c1.2,0.1,2.3,0.2,3.4,0.2c1.3,0,3.3-0.1,4.9-0.5c4.9-1,13.2-4.5,13.2-15.8C161,30.5,156.6,26.7,154,25z M139.5,37.3   c0-9,0-10.7,0.1-12.2c0.1-0.9,0.2-1.2,0.5-1.3l0,0c0.2-0.1,0.6-0.2,1.1-0.3c0.3-0.1,0.6-0.1,0.9-0.2c3.1,0,5.5,1,8.1,3.3   c2.8,2.6,4.5,6.9,4.5,11.6c0,8.9-4.6,12.4-6,13.3c-1.6,1-3.4,1.1-4.3,1.1c-1,0-2.3-0.5-3-1.1c-1.1-0.7-1.6-1.8-1.7-3.9   C139.6,45.3,139.5,41.8,139.5,37.3z"></path>
	<path class="st2" d="M196.2,53.7c0.3-0.1,0.6-0.5,0.6-0.6c0-0.3-0.5-0.4-0.7-0.4l0,0c-1-0.1-2-0.3-3.2-1.6c-1-1.2-2-2.4-3.5-4.9   c-1.6-2.9-3.8-6.7-4.7-8.5c-0.2-0.4,0-0.6,0-0.6l0,0c0.7-0.2,1.9-0.7,2.5-1.2c0.8-0.5,2.8-2.1,2.8-5.3c0-2.5-1-4.5-3.1-6.1l0,0   c-1.9-1.3-4.2-1.8-6.7-1.4c-2.7,0-3.9,0.1-5,0.1c-0.8,0-1.5,0.1-2.7,0.1c-0.9,0-2,0-2.9-0.1c-0.6,0-1,0-1.2,0c-0.4,0-1,0.1-1,0.4   s0.4,0.4,0.9,0.5h0.1c1.8,0.3,1.8,0.9,1.9,2v0.3c0.2,3.6,0.3,7.9,0.3,12.7c0,4.1-0.1,8.5-0.3,11.1c-0.1,1.7-0.6,2.2-2.2,2.5   c-0.7,0.1-1,0.2-1,0.5c0,0.2,0.2,0.5,1,0.5c0.3,0,1-0.1,1.7-0.1c1.1-0.1,2.4-0.2,3.4-0.2c1.4,0,3.2,0.1,4.3,0.2c0.5,0,0.9,0,1,0   c0.4,0,1-0.1,1-0.4c0-0.3-0.3-0.6-0.9-0.7c-1.4-0.3-2-0.9-2.1-1.3c-0.3-0.7-0.4-2.4-0.4-5.1c0-0.4,0-1.1,0-1.9c0-1.9-0.1-4.2,0-4.8   c0-0.3,0.1-0.5,0.2-0.5h1.1c0.7,0,1.3,0.3,2.2,1.9c1.6,2.9,3.9,7.2,5.4,9.3c2.4,3.5,5.4,4,8.2,4C194.7,53.9,195.8,53.9,196.2,53.7z    M184.1,31.2c0,3-1.2,4.5-2.2,5.2c-1.1,0.8-3.5,1.2-4.6,1.2c-0.2,0-0.6,0-0.8-0.1c-0.1,0-0.3-0.2-0.3-0.7c-0.1-0.7,0-6.4,0.1-9.5   c0-1.1,0-1.9,0-2.1c0-0.8,0.2-1.1,0.2-1.1l0,0l0,0c0.2-0.2,0.7-0.3,1.4-0.3c1.3,0,2.9,0.2,4.4,1.9   C183.6,27.1,184.1,28.8,184.1,31.2z"></path>
	<path class="st2" d="M226.1,31.5c0-1.8,0.1-3.6,0.1-4.8c0.1-2.2,0.5-3,2.3-3.2c0.5-0.1,1.1-0.2,1.1-0.6s-0.6-0.4-1.1-0.4   c-0.6,0-1.2,0.1-1.8,0.1s-1.2,0.1-1.8,0.1c-0.8,0-1.4-0.1-2-0.1c-0.5,0-1-0.1-1.6-0.1c-0.7,0-1,0.3-1,0.5c0,0.3,0.4,0.5,1,0.6   c0.1,0,0.3,0,0.4,0.1c0.4,0.1,0.8,0.2,1,0.2c1.2,0.6,1.7,1.2,1.7,10.1c0,0.5,0,1.2,0,2c0,1-0.1,2.1-0.1,3.1   c-0.2,11.2-5,12.5-8.5,12.5c-2.7,0-4.9-0.8-6.3-2.4c-1.6-1.7-2.4-4.6-2.4-8.5c-0.1-3.7-0.1-9.1,0-13.6c0-2.2,0.2-2.9,2-3.3   c0.2,0,0.9-0.2,0.9-0.6s-0.5-0.4-0.9-0.4c-0.7,0-1.3,0-2,0.1c-0.8,0.1-1.6,0.1-2.7,0.1c-1.1,0-2.1-0.1-3-0.1   c-0.8,0-1.6-0.1-2.4-0.1c-0.1,0-0.2,0-0.3,0s-0.2,0-0.3,0v-0.5l-0.2,0.5c0,0.1,0,0.2,0,0.2s0.1,0.1,0.2,0.1   c0.2,0.1,0.5,0.3,0.7,0.4c1.7,0.5,1.9,0.8,2,3c0.1,1.5,0.1,3.9,0.1,6.4c0,2.3,0,4.6,0.1,6.7c0.1,6.9,1.1,9.6,4.3,12.1   c1.6,1.4,4.8,2.3,7.9,2.3c2.7,0,6.4-0.6,8.9-3.3c1.7-1.8,3.3-4.6,3.6-13.6C226,35.9,226.1,33.7,226.1,31.5z"></path>
	<path class="st2" d="M263.5,39.9c-0.1,0-0.4,0-0.8,0c-0.8,0-2.1,0.1-2.9,0.1c-1.5,0-2.5-0.1-3.4-0.1c-0.7,0-1.4-0.1-2.2-0.1   c-0.7,0-1.3,0.1-1.3,0.5c0,0.3,0.6,0.5,1.1,0.5l0,0c1.8,0.4,2.3,0.9,2.4,2.4c0.2,1.1,0.1,3.4,0,4.7c0,0.5,0,0.8,0,1   c0,1.3-0.4,2.1-0.6,2.5c-1.3,1.3-3.1,1.6-4,1.6c-2.2,0-4.1-0.8-6.1-2.6c-1.5-1.4-4.9-5.3-4.9-12.2c0-4.6,1.5-9,3.8-11.6   c2-2.3,4.7-3.5,7.5-3.5c4.6,0,8,2.3,9.3,6.2c0.2,0.7,0.4,1,0.7,1c0.1,0,0.2,0,0.3-0.1c0.2-0.2,0.2-0.6,0.2-1   c-0.1-0.6-0.5-3.4-0.6-4.3v-0.2c-0.1-0.4-0.2-0.9-0.6-1c-0.2-0.1-0.5-0.2-0.9-0.3c-0.7-0.2-1.5-0.5-2.4-0.7c-1.5-0.4-3.5-0.8-6-0.5   c-4.5,0-8.2,1.1-11.3,3.5c-4.4,3.4-6.7,7.8-6.7,12.9c0,4.6,1.9,8.7,5.3,11.7c3,2.6,7.6,4.1,12.3,4.1c2.2,0,5.6-0.8,7.7-1.6   c0.3-0.1,0.7-0.3,1-0.4c0.5-0.2,1.1-0.4,1.6-0.7c0.4-0.2,0.4-0.6,0.4-1.3c0-0.2,0-0.6,0-1.1c-0.1-1.1-0.2-2.7-0.2-4.9   c0-2.6,0.2-3.1,1.1-3.2c0.8-0.2,1.3-0.4,1.3-0.8C264.7,40.1,264.3,39.9,263.5,39.9z"></path>
	<path class="st2" d="M290.7,53.4c0.6,0,1.2,0,1.2-0.4c0-0.3-0.6-0.6-0.8-0.6c-2.1-0.4-2.5-0.7-2.5-2.3c-0.1-2.2-0.2-9.4-0.1-10.6   c0-0.2,0.2-0.5,0.3-0.5c4.4,0,6.3,0,7.1,0.2c0.6,0.2,1.2,0.5,1.8,2.1c0.3,0.6,0.6,1.1,0.8,1.1c0.4,0,0.4-0.6,0.4-1.1   c-0.1-0.5-0.2-1.5-0.2-2.7c0-0.7,0.1-1.6,0.1-2.3c0-0.4,0.1-0.8,0.1-1c0.1-0.3,0.1-0.6-0.1-0.7c-0.1-0.1-0.2-0.1-0.3-0.1   c-0.2,0-0.4,0.3-0.5,0.6c0,0.1-0.1,0.1-0.1,0.2c-0.7,1.6-1.1,2-1.9,2.2c-0.9,0.1-1.9,0.1-7.2,0.1c-0.1,0-0.3-0.2-0.3-0.5   c-0.1-2.6,0-11.1,0.1-12.4c0-0.3,0.2-0.6,0.3-0.6c3.9,0,5.7,0,7.1,0.1c1.9,0.2,3.1,1.3,3.8,3.4c0.2,0.7,0.4,1,0.6,1   c0.4,0,0.4-0.7,0.4-1.1c0-0.1,0-0.7-0.1-1.5c-0.1-0.9-0.1-1.9-0.1-2.2c-0.1-0.3-0.3-1-1-1c-0.6,0-1.8,0-3.2,0.1   c-2.7,0.1-6.5,0.1-10.5,0.1c-1.4,0-2.7-0.1-3.7-0.1c-0.7,0-1.2-0.1-1.6-0.1c-0.7,0-0.9,0.1-1,0.2l0,0v0c0,0.4,0.8,0.6,0.9,0.6   c1.6,0.3,1.9,0.7,2,2.4c0.1,2.9,0.1,6.6,0.1,11.6c0,5.2,0,10.7-0.1,12.2c-0.1,1.6-0.4,2-2,2.4c-0.3,0-1.1,0.2-1.1,0.6   c0,0.5,0.6,0.5,1.1,0.5c0.6,0,1.2,0,1.8-0.1c0.8-0.1,1.7-0.1,3-0.1c1.2,0,2.4,0.1,3.5,0.1C289.5,53.4,290.2,53.4,290.7,53.4z"></path>
	<path class="st2" d="M317.1,53.6c0.4,0,1-0.1,1-0.4c0-0.3-0.3-0.6-0.9-0.7c-1.4-0.3-2-0.9-2.1-1.3c-0.3-0.7-0.4-2.3-0.4-5.1   c0-0.4,0-1.1,0-1.9c0-1.9-0.1-4.2,0-4.8c0-0.3,0.1-0.5,0.2-0.5h1.1c0.7,0,1.3,0.3,2.2,1.9c1.7,3,3.9,7.2,5.4,9.3   c2.4,3.5,5.4,4,8.2,4c1.5,0,2.6,0,3-0.2c0.3-0.1,0.6-0.5,0.6-0.6c0-0.3-0.5-0.4-0.7-0.4l0,0c-1-0.1-2-0.3-3.2-1.6   c-1-1.2-2-2.4-3.5-4.9c-1.6-2.9-3.8-6.6-4.7-8.5c-0.2-0.4,0-0.6,0-0.6l0,0c0.7-0.2,1.9-0.7,2.5-1.2c0.8-0.5,2.8-2.1,2.8-5.3   c0-2.5-1-4.5-3.1-6.1l0,0c-1.8-1.3-4.1-1.8-6.7-1.4c-2.7,0-3.9,0.1-5,0.1c-0.8,0-1.5,0.1-2.7,0.1c-0.9,0-2,0-2.9-0.1   c-0.6,0-1,0-1.2,0c-0.4,0-1,0.1-1,0.4s0.4,0.4,0.9,0.5h0.1c1.8,0.3,1.8,0.9,1.9,2v0.3c0.2,3.6,0.3,7.9,0.3,12.7   c0,4.1-0.1,8.5-0.3,11.1c-0.1,1.7-0.6,2.2-2.2,2.5c-0.7,0.1-1,0.2-1,0.5c0,0.2,0.2,0.5,1,0.5c0.3,0,1-0.1,1.7-0.1   c1.1-0.1,2.4-0.2,3.4-0.2c1.4,0,3.2,0.1,4.3,0.2C316.6,53.6,316.9,53.6,317.1,53.6z M314.8,27.3c0-1.1,0-1.9,0-2.1   c0-0.8,0.2-1.1,0.2-1.1l0,0c0.3-0.2,0.8-0.3,1.5-0.3c1.3,0,2.9,0.2,4.4,1.9c1.2,1.4,1.7,3.1,1.7,5.5c0,3-1.2,4.5-2.2,5.2   c-1.1,0.8-3.5,1.2-4.6,1.2c-0.2,0-0.6,0-0.8-0.1c-0.1,0-0.3-0.2-0.3-0.7C314.7,36.1,314.8,30.4,314.8,27.3z"></path>
	<path class="st2" d="M359.9,53.5c0.5,0,1-0.3,1.2-0.8c0.2-0.3,0.6-1.5,1-2.9c0.1-0.4,0.2-0.8,0.3-1c0.1-0.6,0.1-0.9,0-1.1   c0-0.1-0.1-0.1-0.2-0.1c-0.2,0-0.4,0.2-0.7,0.6l-0.2,0.2c-0.2,0.2-0.4,0.5-0.6,0.8c-0.4,0.6-0.9,1.3-1.4,1.7   c-1,1.1-2.3,1.1-4.5,1.1h-0.5c-2.9,0-3.7-0.1-4.4-0.3c-0.7-0.2-1.1-1.4-1.1-1.9c0-0.4,0-1.7-0.1-3.3c-0.1-2.6-0.1-5.9-0.1-7.4   c0-0.2,0.1-0.4,0.2-0.4c5.4,0,6.5,0.1,7.7,0.2h0.1c0.7,0.1,1.1,1.1,1.3,1.6v0.1c0.2,0.7,0.3,1,0.6,1c0.4,0,0.4-0.4,0.4-1   c0-0.1,0-0.5,0-1c0-0.7-0.1-1.5-0.1-1.8c0-0.4,0.1-1.2,0.1-1.9c0-0.5,0.1-0.9,0.1-1.1c0-0.2,0-0.7-0.3-0.7c-0.4,0-0.6,0.4-0.6,0.7   c-0.5,1.4-0.9,1.8-1.3,2c-0.5,0.2-1.5,0.3-3.1,0.3h-5c-0.1,0-0.2-0.2-0.2-0.4V26.1c0-2,0.2-2,0.4-2c2.9-0.1,7,0,7.7,0.1   c0.8,0.2,2.1,1.5,2.8,3.3c0.2,0.5,0.4,0.7,0.7,0.7c0.3,0,0.3-0.8,0.3-0.9c-0.1-0.6-0.5-3.5-0.5-3.8c-0.1-0.4-0.4-0.9-0.7-0.9   c-0.1,0-0.3,0-0.5,0c-0.5,0-1.3,0.1-2.5,0.1c-0.8,0-2.3,0-4.1,0c-2.4,0-5,0.1-7,0.1c-0.5,0-1.4,0-2.3-0.1s-1.9-0.1-2.5-0.1   c-0.3,0-0.8,0.1-0.9,0.3c0,0.1,0,0.1,0.1,0.2c0.1,0.3,0.4,0.5,0.9,0.6c1.7,0.3,2.3,0.8,2.3,3.4c0,1.7,0,3.3,0,4.8   c0,6,0,11.6-0.2,17.6c0,2.1-0.9,2.6-2.4,2.8c-0.7,0.2-1,0.3-1,0.6c0,0.4,0.6,0.4,1,0.4c0.2,0,0.8,0,1.6-0.1   c1.2-0.1,2.9-0.1,3.9-0.1c1.8,0,4,0,6.3,0.1C354.4,53.5,357.2,53.5,359.9,53.5z"></path>
	<path class="st2" d="M390.4,47.8c0-0.1-0.1-0.1-0.2-0.1c-0.2,0-0.4,0.2-0.7,0.6l-0.2,0.2c-0.2,0.2-0.4,0.5-0.6,0.8   c-0.4,0.6-0.9,1.3-1.4,1.7c-1,1.1-2.3,1.1-4.5,1.1h-0.5c-2.9,0-3.7-0.1-4.4-0.3c-0.7-0.2-1.1-1.4-1.1-1.9c0-0.4,0-1.7-0.1-3.3   c-0.1-2.6-0.1-5.9-0.1-7.4c0-0.2,0.1-0.4,0.2-0.4c5.4,0,6.5,0.1,7.7,0.2h0.1c0.7,0.1,1.1,1.1,1.3,1.6v0.1c0.2,0.7,0.3,1,0.6,1   c0.4,0,0.4-0.5,0.4-1c0-0.1,0-0.5,0-1c0-0.7-0.1-1.5-0.1-1.8c0-0.4,0.1-1.2,0.1-1.9c0-0.5,0.1-0.9,0.1-1.1c0-0.2,0-0.7-0.3-0.7   c-0.4,0-0.6,0.4-0.6,0.7c-0.5,1.4-0.9,1.8-1.3,2c-0.5,0.2-1.5,0.3-3.1,0.3h-5c-0.1,0-0.2-0.2-0.2-0.4V26.1c0-2,0.2-2,0.4-2   c2.9-0.1,7,0,7.7,0.1c0.8,0.2,2.1,1.5,2.8,3.3c0.2,0.5,0.4,0.7,0.7,0.7c0.3,0,0.3-0.8,0.3-0.9c-0.1-0.6-0.5-3.5-0.5-3.8   c-0.1-0.4-0.4-0.9-0.7-0.9c-0.1,0-0.3,0-0.5,0c-0.5,0-1.3,0.1-2.5,0.1c-0.8,0-2.3,0-4.1,0c-2.4,0-5,0.1-7,0.1c-0.5,0-1.4,0-2.3-0.1   s-1.9-0.1-2.5-0.1c-0.3,0-0.8,0.1-0.9,0.3c0,0.1,0,0.1,0.1,0.2c0.1,0.3,0.4,0.5,0.9,0.6c1.7,0.3,2.3,0.8,2.3,3.4c0,1.7,0,3.3,0,4.8   c0,6,0,11.6-0.2,17.6c0,2.1-0.9,2.6-2.3,2.8c-0.7,0.2-1,0.3-1,0.6c0,0.4,0.6,0.4,1,0.4c0.2,0,0.8,0,1.6-0.1   c1.2-0.1,2.9-0.1,3.9-0.1c1.8,0,4,0,6.3,0.1c2.7,0.1,5.5,0.1,8.2,0.1c0.5,0,1-0.3,1.2-0.8c0.2-0.3,0.6-1.5,1-2.9   c0.1-0.4,0.2-0.8,0.3-1C390.5,48.2,390.5,47.9,390.4,47.8z"></path>
	<path class="st2" d="M149.3,80c-0.3,0-0.5,0.4-0.5,0.6c-0.6,1.3-1.2,2.3-2.4,3c-0.7,0.5-1.6,0.9-3.6,0.9c-1.8,0-3.6-0.9-5-2.3   c-1.9-2-2.8-5.3-2.8-7.6c0-3.1,0.9-5.9,2.6-7.7c1.4-1.4,3.3-2,4.6-2c2,0,3.5,0.5,4.7,1.5c0.6,0.5,1.2,1.5,1.5,2.6   c0.1,0.3,0.2,0.5,0.4,0.5h0.1c0,0,0.3-0.2,0.3-0.6c0-0.1,0-0.3,0-0.5c-0.1-0.6-0.1-1.6-0.1-2.1c0-0.2,0-0.5-0.5-0.7l0,0   c-0.5-0.2-3.3-1.3-5.9-1.4c-3.2,0-6.3,1.1-8.1,2.8c-1.8,1.6-3.6,3.8-3.6,8c0,2.8,1.1,5.7,2.8,7.4c1.5,1.5,4.2,3.3,8.8,3.3   c2.8,0,4.4-0.5,6.3-1.5l0,0c0.2-0.2,0.3-0.5,0.4-0.9l0,0c0-0.1,0.1-0.5,0.2-0.9c0.1-0.5,0.2-1.2,0.2-1.5   C149.6,80.6,149.5,80,149.3,80z"></path>
	<path class="st2" d="M169.6,64c-2.3,0-4.8,0.8-6.5,2.1c-2.9,2.2-4.3,5-4.3,8.6c0,6.1,4.8,10.8,11,10.8c1.6,0,3.1-0.3,4.6-1   c2.3-0.9,6.1-4,6.1-9.5C180.5,68.9,175.7,64,169.6,64z M176,75c0,5-1.8,7.4-2.6,8.2c-1.2,1.4-2.7,1.6-3.3,1.6   c-1.6,0-3.2-0.9-4.5-2.5c-1.7-2-2.7-5-2.7-8c0-2.9,0.8-5.6,2-7.1c0.8-0.9,2.4-2.4,4.2-2.4c2.7,0,4.2,1.7,4.9,2.8   C175.4,69.8,176,71.9,176,75z"></path>
	<path class="st2" d="M213.9,64.4c-1.1,0-1.9,0.1-2.7,0.1c-0.6,0-1.2,0.1-1.8,0.1c-0.3,0-0.5,0.4-0.5,0.6c-0.2,0.7-0.6,1.5-1,2.6   c-0.7,1.6-4.5,9.5-5.5,11.3c-1.2-2.3-5.7-11.4-6.8-14c-0.1-0.2-0.3-0.5-0.5-0.5c-0.9,0-2-0.1-3-0.1c-0.8,0-1.6-0.1-2.1-0.1   c-0.2,0-0.5,0-1,0.2h-0.1v0.1c0,0.3,0.3,0.4,0.5,0.5c0,0,0.1,0,0.1,0.1c0.1,0,0.2,0.1,0.3,0.1c0.5,0.1,0.9,0.3,1.3,0.7   c0.6,0.7,0.7,1.1,0.7,3c0,2.5-0.4,9.2-0.6,11c-0.2,2.4-0.3,3-0.7,3.5c-0.2,0.4-0.6,0.5-1.3,0.7c-0.1,0-0.2,0.1-0.4,0.1   c-0.4,0.2-0.6,0.3-0.6,0.5c0,0.3,0.5,0.3,0.7,0.3s0.4,0,0.7-0.1c0.5-0.1,1-0.1,1.6-0.1s1.3,0,1.8,0.1c0.4,0,0.8,0,1,0   c0.4,0,0.7-0.1,0.7-0.4c0-0.2-0.2-0.3-0.6-0.4c-1-0.2-1.5-0.7-1.6-1.3c-0.1-0.5-0.1-0.9-0.1-2.2c0-2.2,0.3-10,0.4-11.4   c0-0.1,0-0.2,0.1-0.2l0,0c0.8,1.6,5.5,12,6.7,14.8c0.3,0.9,0.5,0.9,0.6,0.9c0.3,0,0.4-0.2,0.6-0.6l0.1-0.1c1-2.5,3.6-8,5.7-12.4   c0.4-0.8,0.8-1.6,1.1-2.4c0,8-0.1,10.6-0.1,11.4c-0.1,2.5-0.3,3.2-1.6,3.5c-0.1,0-0.6,0.3-0.6,0.5c0,0.4,0.5,0.4,0.7,0.4s0.6,0,1,0   c0.7,0,1.6-0.1,2.3-0.1c0.6,0,1.3,0.1,1.9,0.1c0.7,0,1.3,0.1,1.9,0.1c0.5,0,0.7-0.1,0.7-0.3c0-0.3-0.3-0.4-0.6-0.5   c-1.4-0.4-1.6-0.8-1.7-2.5c0-0.4,0-1.1-0.1-2c-0.1-1.6-0.1-3.7-0.1-6c0-1.6,0-4.9,0.1-6.2v-0.1c0.1-1.8,0.1-2.1,1.9-2.5   c0.3,0,0.6-0.1,0.6-0.4C214.6,64.6,214.3,64.4,213.9,64.4z"></path>
	<path class="st2" d="M230.3,64.2c-0.8,0-1.5,0.1-2.3,0.1c-0.6,0-1.3,0.1-1.8,0.1h-2.4c0,0-0.7,0-0.7,0.3s0.4,0.4,0.6,0.4l0,0   c1,0.1,1.1,0.5,1.2,1c0.1,0.6,0.2,2.6,0.2,7.6c0,4.9-0.1,8.3-0.2,9.1c-0.1,0.9-0.4,1.1-1.3,1.3c-0.4,0-0.6,0.2-0.6,0.4   c0,0.3,0.5,0.4,0.6,0.4c0.2,0,0.4,0,0.8-0.1c0.7-0.1,1.6-0.1,2.4-0.1c1.1,0,2.2,0.1,3,0.1c0.4,0,0.7,0.1,0.8,0.1   c0.5,0,0.7-0.3,0.7-0.4c0-0.2-0.3-0.3-0.7-0.4c-0.9-0.2-1.3-0.5-1.3-1.6c-0.1-0.8-0.2-2.6-0.2-6.2v-11c0-0.1,0.1-0.3,0.1-0.3   c0.1,0,0.2,0,0.4,0s0.4-0.1,0.5-0.1c0.8,0,1.8,0.3,2.7,1.6c0.8,1.1,1.2,2.6,1.2,4.2c0,1.3-0.6,5.2-3.1,5.2h-0.4   c-0.3,0-0.4,0.2-0.4,0.3c0,0.2,0.2,0.3,0.3,0.4c0,0,0.1,0,0.1,0.1h0.1c0.1,0,0.2,0,0.3,0c0.2,0,0.4,0.1,0.6,0.1   c0.9,0,2.7-0.3,4-1.2c1.7-1.1,2.6-2.8,2.6-5.1c0-1.2-0.2-2.8-1.7-4.2C235.1,64.6,232.4,64.2,230.3,64.2z"></path>
	<path class="st2" d="M262.3,81.1c-0.2,0-0.3,0.1-0.5,0.3c-0.1,0.1-0.1,0.2-0.3,0.3c-0.7,1.2-1.6,2.1-2.2,2.3   c-0.6,0.2-1.5,0.2-2.3,0.2c-2.1,0-3.1-0.2-3.5-0.8c-0.2-0.3-0.3-0.9-0.3-1.8c0-0.2,0-0.4,0-0.6c-0.1-0.6-0.1-3.6-0.1-6.5   c0-2.1,0.1-4.4,0.1-5.8c0-0.6,0-1,0-1.1c0.1-2.1,0.2-2.1,1.2-2.3l0,0c0,0,0.1,0,0.2-0.1c0.2-0.1,0.5-0.2,0.5-0.5s-0.3-0.3-0.7-0.3   c-0.6,0-1.1,0-1.5,0c-0.5,0-1.1,0.1-1.8,0.1c-0.6,0-1.2-0.1-1.7-0.1c-0.6-0.1-1.1-0.1-1.6-0.1c-0.1,0-0.3,0-0.4,0.2   c-0.1,0.1-0.1,0.3,0,0.5c0,0.2,0.3,0.3,0.6,0.4c1,0.2,1.3,0.3,1.4,2c0.1,1.2,0.1,3.3,0.1,7.7c0,4.5,0,6.5-0.2,7.8   c-0.1,1-0.4,1.2-1.5,1.5c-0.4,0-0.7,0.1-0.7,0.4s0.5,0.3,0.9,0.3c0.2,0,0.5,0,0.9-0.1c0.7-0.1,1.5-0.1,2.1-0.1   c1.6,0,3.8,0.1,5.2,0.2c1.4,0.1,3.6,0.1,4.3,0.1c0.6,0,0.9-0.2,1-0.5l0,0c0-0.2,0.8-2.2,0.9-2.4c0.1-0.3,0.3-1,0.1-1.3   C262.5,81.2,262.4,81.1,262.3,81.1z"></path>
	<path class="st2" d="M276.8,66.9c0.1-1,0.1-1.4,1.2-1.6c0.4,0,0.6-0.2,0.6-0.4c0-0.2-0.2-0.3-0.6-0.3c-0.3,0-0.7,0-1.1,0   c-0.6,0-1.4,0.1-2.2,0.1c-0.5,0-0.9,0-1.3-0.1c-0.6-0.1-1.2-0.1-2-0.1c-0.1,0-0.4,0-0.5,0.2c0,0.1-0.1,0.2,0,0.2   c0,0.2,0.3,0.3,0.5,0.4c0.9,0.2,1.2,0.4,1.4,1.3c0,0.1,0,0.4,0,0.8c0,0.7,0.1,1.9,0.1,3c0,0.2,0,0.8,0,1.6c0,2.9,0.1,8.2,0,9.8   c-0.1,2-0.3,2.4-1.4,2.6c-0.6,0.1-0.8,0.2-0.8,0.5c0,0.2,0.3,0.3,0.7,0.3c0.2,0,0.5,0,0.8-0.1c0.6-0.1,1.5-0.1,2.9-0.1   c0.7,0,1.2,0,1.6,0.1c0.4,0,0.8,0,1.2,0c0.3,0,0.7,0,0.7-0.3s-0.2-0.4-0.6-0.5c-0.8-0.3-1-0.6-1.1-1.7c0-0.4,0-0.9,0-1.6   c0-1.5-0.1-3.6-0.1-6.9c0-1.7,0-5.6,0.1-6.9C276.8,67.1,276.8,67,276.8,66.9z"></path>
	<path class="st2" d="M307.4,84.3c-0.7-0.2-1.1-0.4-1.8-2.1c-1.6-3.4-4.2-10.3-6-15.1l-0.2-0.6c-0.3-0.8-0.6-1.6-0.6-1.9v-0.1h0.3   l-0.2-0.2c-0.1-0.1-0.2-0.2-0.3-0.1c-0.1,0-0.1,0.1-0.1,0.1c-0.1,0.1-0.2,0.2-0.3,0.3c-0.2,0.5-1.1,1.3-1.7,1.7   c-0.1,0-0.3,0.1-0.3,0.4s0,0.5-0.1,0.9c-1.7,4.5-4.4,11.4-5.4,13.6c-1.1,2.7-1.7,3-3.1,3.3c-0.1,0-0.2,0-0.2,0.1   c-0.2,0.1-0.5,0.1-0.5,0.4s0.3,0.3,0.7,0.3c0.5,0,1-0.1,1.4-0.1s0.7-0.1,1.1-0.1c0.6,0,1.2,0,1.8,0.1c0.4,0,0.8,0,1.1,0   c0.4,0,0.8,0,0.8-0.3c0-0.2-0.2-0.3-0.6-0.4h-0.1c-0.6-0.2-1-0.3-1.4-0.6c-0.3-0.4-0.3-0.9,0-1.9c0.3-1.2,1.1-3.5,1.5-4.4   c0.1-0.3,0.2-0.4,0.4-0.4h5.3c0.2,0,0.3,0.1,0.4,0.2c0.9,2.2,1.8,4.9,2,5.9c0,0.4-0.1,0.7-0.3,0.9c-0.2,0.2-0.6,0.3-1,0.4   c-0.3,0.1-0.7,0.2-0.7,0.5s0.4,0.3,0.8,0.3s0.7,0,1.2-0.1c0.7-0.1,1.5-0.1,2.7-0.1c0.9,0,1.5,0,2,0.1c0.4,0,0.8,0,1.2,0   c0.2,0,0.7,0,0.7-0.3C308.2,84.5,307.8,84.4,307.4,84.3z M298.7,75.8c-0.3,0.1-1.1,0.1-2.2,0.1H294c0,0,0,0,0-0.1   c0.4-1.3,1.8-5.4,2.2-6.4v-0.1c0,0,0,0,0,0.1c0.3,0.6,1.4,3.4,2.3,6.1l0,0C298.7,75.6,298.8,75.6,298.7,75.8z"></path>
	<path class="st2" d="M337.1,64.6c-0.2,0-0.4,0-0.8,0.1c-0.5,0.1-1,0.1-1.6,0.1c-0.3,0-0.7-0.1-1.2-0.1c-0.4,0-0.9-0.1-1.2-0.1   c-0.4,0-0.8,0-0.8,0.3c0,0.2,0.2,0.3,0.7,0.4c1,0.3,1.8,0.6,1.9,2.4c0.1,2.4,0.1,9,0.1,11c-0.7-0.7-1.7-1.9-2.8-3.1   c-3.2-3.5-7.5-8.3-9-10.3c-0.5-0.6-0.7-0.7-0.8-0.7c-0.7,0-1.6,0-2.5-0.1s-1.8-0.1-2.7-0.1c-0.3,0-0.5,0-0.6,0.2   c-0.1,0.1-0.1,0.3,0,0.6c0,0.2,0.2,0.3,0.7,0.4c0.6,0.1,1.1,0.3,1.5,0.6c0.3,0.2,0.6,0.4,0.6,2.2c0,4.1-0.2,12.7-0.4,14   c-0.2,1.8-0.7,1.9-1.7,2.2c-0.5,0.2-0.7,0.2-0.7,0.4c0,0.2,0.2,0.3,0.6,0.3c0.1,0,0.3,0,0.6-0.1c0.5-0.1,1.1-0.1,1.7-0.1   s1.1,0,1.6,0.1c0.4,0,0.7,0,1,0c0.2,0,0.7,0,0.7-0.3s-0.3-0.4-0.6-0.5c-0.9-0.2-1.4-0.6-1.6-0.9c-0.2-0.4-0.2-0.9-0.2-1.8   c0-0.2,0-0.5,0-0.7c-0.1-1.4,0-8.9,0-11.7c0-0.6,0-0.9,0-1v-0.1c0,0,0,0,0.1,0.1c1.1,1.3,2.6,2.9,4.1,4.7   c4.2,4.8,8.9,10.2,9.9,11.5c0.6,0.8,1,1.2,1.2,1.2s0.5-0.1,0.5-1.3c-0.1-1.1,0-2.3,0-3.8c0-0.8,0-1.8,0-2.8c0-2.9,0.1-8.8,0.2-10.7   c0.1-0.8,0.2-1.4,1.4-1.8c0.2-0.1,0.6-0.2,0.6-0.5C337.7,64.7,337.5,64.6,337.1,64.6z"></path>
	<path class="st2" d="M365.4,80c-0.3,0-0.4,0.3-0.5,0.6c-0.6,1.3-1.2,2.3-2.4,3c-0.7,0.5-1.6,0.9-3.6,0.9c-1.8,0-3.6-0.9-5-2.3   c-1.9-2-2.8-5.3-2.8-7.6c0-3.1,0.9-5.9,2.6-7.7c1.4-1.4,3.3-2,4.6-2c2,0,3.5,0.5,4.7,1.5c0.6,0.5,1.2,1.5,1.5,2.6l0,0   c0.1,0.3,0.2,0.5,0.4,0.5h0.1c0,0,0.3-0.1,0.3-0.6c0-0.1,0-0.3,0-0.5c-0.1-0.6-0.1-1.6-0.1-2.1c0-0.2,0-0.5-0.5-0.7l0,0   c-1.1-0.5-3.7-1.3-5.9-1.4c-3.2,0-6.3,1.1-8.1,2.8c-1.8,1.6-3.6,3.8-3.6,8c0,2.8,1.1,5.7,2.8,7.4c1.5,1.5,4.2,3.3,8.8,3.3   c2.8,0,4.4-0.5,6.3-1.5l0,0c0.2-0.2,0.3-0.5,0.4-0.9l0,0c0-0.1,0.1-0.5,0.2-0.9c0.1-0.5,0.2-1.2,0.2-1.5   C365.7,80.6,365.7,80,365.4,80z"></path>
	<path class="st2" d="M389.5,81c-0.1,0-0.2,0.1-0.3,0.2c-0.1,0.1-0.2,0.2-0.3,0.3c-0.3,0.5-0.9,1.3-1.3,1.7   c-0.5,0.6-1.3,0.7-2.4,0.7c-0.3,0-0.6,0-1,0c-1.9,0-2.5-0.1-2.9-0.2s-0.7-0.8-0.7-1.2c0-0.2,0-1,0-2c0-1.7-0.1-4-0.1-5.1   c0-0.1,0.1-0.3,0.1-0.3c3.7,0,4.4,0.1,5.2,0.2h0.1c0.4,0.1,0.6,0.5,0.8,0.9c0,0.1,0.1,0.2,0.1,0.2c0.2,0.5,0.3,0.7,0.5,0.7   s0.3-0.3,0.3-0.7c0-0.1,0-0.4,0-0.7c0-0.4-0.1-1-0.1-1.2c0.1-0.4,0.2-1.8,0.2-2c0-0.1-0.1-0.5-0.3-0.5c-0.2,0-0.4,0.3-0.4,0.5   c-0.4,0.8-0.6,1.2-0.8,1.3c-0.3,0.1-1,0.2-2.1,0.2h-3.4c0,0-0.1-0.1-0.1-0.2v-7.1c0-1.3,0.2-1.3,0.3-1.3c1.9,0,4.7,0,5.1,0.1   c0.6,0.2,1.5,1,1.9,2.2c0.1,0.3,0.4,0.5,0.5,0.5c0.2,0,0.3-0.4,0.3-0.6s-0.1-1-0.2-1.7c-0.1-0.4-0.1-0.8-0.1-0.9   c0-0.3-0.2-0.6-0.5-0.6c-0.1,0-0.2,0-0.4,0c-0.3,0-0.8,0.1-1.6,0.1c-0.6,0-1.6,0-2.7,0c-1.6,0-3.3,0.1-4.7,0.1   c-0.3,0-0.9,0-1.5-0.1s-1.3-0.1-1.7-0.1c0,0-0.8,0-0.8,0.3c0,0.2,0.2,0.3,0.6,0.4c1.1,0.2,1.5,0.5,1.5,2.2c0,5.3,0,10-0.2,14.9   c0,1.5-0.7,1.7-1.5,1.9c-0.1,0-0.1,0-0.2,0c-0.3,0.1-0.5,0.1-0.5,0.4c0,0.2,0.3,0.3,0.7,0.3c0.2,0,0.6,0,1.1-0.1   c0.8-0.1,1.9-0.1,2.6-0.1c1.2,0,2.7,0,4.2,0c1.8,0,3.6,0.1,5.5,0.1c0.4,0,0.7-0.2,0.8-0.6c0.2-0.4,0.8-2.3,0.8-2.6   c0.1-0.3,0-0.5-0.1-0.7C389.6,81,389.5,81,389.5,81z"></path>
</g>
</svg>
